<svg viewBox="0 0 244 61" fill="none" xmlns="http://www.w3.org/2000/svg">
<g clip-path="url(#clip0_2016_539)">
<path d="M21.423 15.9718C21.5931 13.8064 23.2006 13.8064 24.6226 13.8064C26.0446 13.8064 27.6521 13.8064 27.8221 15.9718V60.9386C28.1776 60.9846 28.5486 61.0154 28.9195 61.0154C31.3463 61.0154 33.6184 60.0785 35.3341 58.3739C39.121 54.6113 45.0873 54.3041 49.2452 57.4371V15.8643C49.2452 9.49094 42.676 0 24.6226 0C6.56911 0 0 9.49094 0 15.8643V33.8019H21.423V15.9718Z" fill="white"/>
<path d="M174.445 58.3738C178.587 54.258 185.311 54.258 189.453 58.3738C191.169 60.0785 193.441 61.0153 195.868 61.0153C198.294 61.0153 200.567 60.0785 202.282 58.3738C205.915 54.7648 211.525 54.3348 215.652 57.0531C216.008 55.932 216.193 54.8263 216.193 53.8127V17.9375C216.193 11.5642 209.64 2.07324 191.571 2.07324C173.502 2.07324 166.948 11.5642 166.948 17.9375V53.7973C166.948 55.9627 167.737 58.4967 169.452 60.8925C171.338 60.6007 173.085 59.7407 174.46 58.3738H174.445ZM188.356 18.0297C188.526 15.8643 190.133 15.8643 191.555 15.8643C192.977 15.8643 194.585 15.8643 194.755 18.0297V53.7052C194.585 55.8706 192.977 55.8706 191.555 55.8706C190.133 55.8706 188.526 55.8706 188.356 53.7052V18.0297Z" fill="white"/>
<path d="M223.674 61C226.101 61 228.373 60.0632 230.089 58.3585C233.876 54.5959 239.842 54.2888 244 57.4217V6.89551H222.577V60.9232C222.932 60.9693 223.303 61 223.674 61Z" fill="white"/>
<path d="M84.5637 61C86.9904 61 89.2626 60.0632 90.9783 58.3585C94.7652 54.5959 100.731 54.2888 104.889 57.4217V6.89551H83.4663V60.9232C83.8218 60.9693 84.1928 61 84.5637 61Z" fill="white"/>
<path d="M56.7417 61C59.1684 61 61.4406 60.0632 63.1563 58.3585C66.9432 54.5959 72.9095 54.2888 77.0673 57.4217V6.89551H55.6443V60.9232C55.9998 60.9693 56.3708 61 56.7417 61Z" fill="white"/>
<path d="M118.801 58.3738C122.587 54.6113 128.554 54.3041 132.712 57.437V33.894C132.882 31.7286 134.489 31.7286 135.911 31.7286C137.333 31.7286 138.941 31.7286 139.111 33.894V60.8925C141.785 61.215 144.567 60.401 146.623 58.3585C150.41 54.5959 156.376 54.2887 160.534 57.4217V33.7865C160.534 27.4131 153.98 17.9222 135.911 17.9222C117.842 17.9222 111.289 27.4131 111.289 33.7865V60.8925C113.963 61.215 116.745 60.401 118.801 58.3585V58.3738Z" fill="white"/>
</g>
<defs>
<clipPath id="clip0_2016_539">
<rect fill="white"/>
</clipPath>
</defs>
</svg>
