<svg viewBox="0 0 413 100" fill="none" xmlns="http://www.w3.org/2000/svg">
<path fill-rule="evenodd" clip-rule="evenodd" d="M0.5 98.7026H412.5V5.08694L407.139 3.21474C396.769 -0.404919 384.563 -0.404919 374.193 3.21474L370.305 4.57256C359.936 8.19222 347.729 8.19222 337.36 4.57256L333.472 3.21474C323.102 -0.404919 310.896 -0.404919 300.526 3.21474L296.638 4.57256C286.268 8.19222 274.062 8.19222 263.692 4.57256L259.804 3.21474C249.434 -0.404919 237.228 -0.404919 226.858 3.21474L222.97 4.57256C212.601 8.19222 200.394 8.19222 190.025 4.57256L186.137 3.21474C175.767 -0.404919 163.561 -0.404919 153.191 3.21474L149.303 4.57256C138.933 8.19222 126.727 8.19222 116.357 4.57256L112.469 3.21474C102.099 -0.404919 89.893 -0.404919 79.5233 3.21474L75.6353 4.57256C65.2655 8.19579 53.0593 8.19579 42.6895 4.57256L38.8015 3.21474C28.4369 -0.404919 16.2306 -0.404919 5.86088 3.21474L0.5 5.08694V98.7026Z" fill="white"/>
<path d="M0.5 98.7026H0V99.2026H0.5V98.7026ZM412.5 98.7026V99.2026H413V98.7026H412.5ZM412.5 5.08694H413V4.73194L412.665 4.6149L412.5 5.08694ZM407.139 3.21474L407.304 2.7427L407.304 2.74267L407.139 3.21474ZM374.193 3.21474L374.029 2.74267L374.029 2.7427L374.193 3.21474ZM370.305 4.57256L370.47 5.04463L370.47 5.0446L370.305 4.57256ZM337.36 4.57256L337.195 5.0446L337.195 5.04463L337.36 4.57256ZM333.472 3.21474L333.636 2.7427L333.636 2.74267L333.472 3.21474ZM300.526 3.21474L300.361 2.74267L300.361 2.7427L300.526 3.21474ZM296.638 4.57256L296.803 5.04463L296.803 5.0446L296.638 4.57256ZM263.692 4.57256L263.527 5.0446L263.527 5.04463L263.692 4.57256ZM259.804 3.21474L259.969 2.7427L259.969 2.74267L259.804 3.21474ZM226.858 3.21474L226.694 2.74267L226.693 2.7427L226.858 3.21474ZM222.97 4.57256L223.135 5.04463L223.135 5.0446L222.97 4.57256ZM190.025 4.57256L189.86 5.0446L189.86 5.04463L190.025 4.57256ZM186.137 3.21474L186.301 2.7427L186.301 2.74267L186.137 3.21474ZM153.191 3.21474L153.026 2.74267L153.026 2.7427L153.191 3.21474ZM149.303 4.57256L149.468 5.04463L149.468 5.0446L149.303 4.57256ZM116.357 4.57256L116.192 5.0446L116.192 5.04463L116.357 4.57256ZM112.469 3.21474L112.634 2.7427L112.634 2.74267L112.469 3.21474ZM79.5233 3.21474L79.3585 2.74267L79.3584 2.7427L79.5233 3.21474ZM75.6353 4.57256L75.4704 4.10052L75.4704 4.10054L75.6353 4.57256ZM42.6895 4.57256L42.8545 4.10054L42.8544 4.10052L42.6895 4.57256ZM38.8015 3.21474L38.9664 2.7427L38.8015 3.21474ZM5.86088 3.21474L5.6961 2.74267L5.69603 2.7427L5.86088 3.21474ZM0.5 5.08694L0.335148 4.61489L0 4.73194V5.08694H0.5ZM0.5 99.2026H412.5V98.2026H0.5V99.2026ZM413 98.7026V5.08694H412V98.7026H413ZM412.665 4.6149L407.304 2.7427L406.974 3.68678L412.335 5.55898L412.665 4.6149ZM407.304 2.74267C396.827 -0.91423 384.505 -0.91423 374.029 2.74267L374.358 3.68681C384.621 0.104392 396.711 0.104392 406.974 3.68681L407.304 2.74267ZM374.029 2.7427L370.141 4.10052L370.47 5.0446L374.358 3.68678L374.029 2.7427ZM370.141 4.10049C359.878 7.68291 347.787 7.68291 337.524 4.10049L337.195 5.04463C347.671 8.70153 359.994 8.70153 370.47 5.04463L370.141 4.10049ZM337.524 4.10052L333.636 2.7427L333.307 3.68678L337.195 5.0446L337.524 4.10052ZM333.636 2.74267C323.16 -0.91423 310.837 -0.91423 300.361 2.74267L300.691 3.68681C310.954 0.104392 323.044 0.104392 333.307 3.68681L333.636 2.74267ZM300.361 2.7427L296.473 4.10052L296.803 5.0446L300.691 3.68678L300.361 2.7427ZM296.473 4.10049C286.21 7.68291 274.12 7.68291 263.857 4.10049L263.527 5.04463C274.004 8.70153 286.326 8.70153 296.803 5.04463L296.473 4.10049ZM263.857 4.10052L259.969 2.7427L259.639 3.68678L263.527 5.0446L263.857 4.10052ZM259.969 2.74267C249.492 -0.91423 237.17 -0.91423 226.694 2.74267L227.023 3.68681C237.286 0.104392 249.376 0.104392 259.639 3.68681L259.969 2.74267ZM226.693 2.7427L222.805 4.10052L223.135 5.0446L227.023 3.68678L226.693 2.7427ZM222.806 4.10049C212.543 7.68291 200.452 7.68291 190.189 4.10049L189.86 5.04463C200.336 8.70153 212.659 8.70153 223.135 5.04463L222.806 4.10049ZM190.189 4.10052L186.301 2.7427L185.972 3.68678L189.86 5.0446L190.189 4.10052ZM186.301 2.74267C175.825 -0.91423 163.502 -0.91423 153.026 2.74267L153.356 3.68681C163.619 0.104392 175.709 0.104392 185.972 3.68681L186.301 2.74267ZM153.026 2.7427L149.138 4.10052L149.468 5.0446L153.356 3.68678L153.026 2.7427ZM149.138 4.10049C138.875 7.68291 126.785 7.68291 116.522 4.10049L116.192 5.04463C126.669 8.70153 138.991 8.70153 149.468 5.04463L149.138 4.10049ZM116.522 4.10052L112.634 2.7427L112.304 3.68678L116.192 5.0446L116.522 4.10052ZM112.634 2.74267C102.157 -0.91423 89.8349 -0.91423 79.3585 2.74267L79.6881 3.68681C89.9511 0.104392 102.041 0.104392 112.304 3.68681L112.634 2.74267ZM79.3584 2.7427L75.4704 4.10052L75.8001 5.0446L79.6881 3.68678L79.3584 2.7427ZM75.4704 4.10054C65.2074 7.68647 53.1174 7.68647 42.8545 4.10054L42.5246 5.04458C53.0011 8.70512 65.3237 8.70512 75.8002 5.04458L75.4704 4.10054ZM42.8544 4.10052L38.9664 2.7427L38.6367 3.68678L42.5247 5.0446L42.8544 4.10052ZM38.9664 2.7427C28.495 -0.914247 16.1725 -0.914221 5.6961 2.74267L6.02566 3.68681C16.2887 0.104383 28.3788 0.10441 38.6367 3.68678L38.9664 2.7427ZM5.69603 2.7427L0.335148 4.61489L0.664852 5.55898L6.02574 3.68678L5.69603 2.7427ZM0 5.08694V98.7026H1V5.08694H0Z" fill="white"/>
</svg>
