<svg viewBox="0 0 413 100" fill="none" xmlns="http://www.w3.org/2000/svg" class="w-full h-40">
  <path fill-rule="evenodd" clip-rule="evenodd" d="M0.5 98.7026H412.5V5.08694L407.139 3.21474C396.769 -0.404919 384.563 -0.404919 374.193 3.21474L370.305 4.57256C359.936 8.19222 347.729 8.19222 337.36 4.57256L333.472 3.21474C323.102 -0.404919 310.896 -0.404919 300.526 3.21474L296.638 4.57256C286.268 8.19222 274.062 8.19222 263.692 4.57256L259.804 3.21474C249.434 -0.404919 237.228 -0.404919 226.858 3.21474L222.97 4.57256C212.601 8.19222 200.394 8.19222 190.025 4.57256L186.137 3.21474C175.767 -0.404919 163.561 -0.404919 153.191 3.21474L149.303 4.57256C138.933 8.19222 126.727 8.19222 116.357 4.57256L112.469 3.21474C102.099 -0.404919 89.893 -0.404919 79.5233 3.21474L75.6353 4.57256C65.2655 8.19579 53.0593 8.19579 42.6895 4.57256L38.8015 3.21474C28.4369 -0.404919 16.2306 -0.404919 5.86088 3.21474L0.5 5.08694V98.7026Z" fill="white"/>
</svg>